# AST/ASF file generated using VICON BodyLanguage
# -----------------------------------------------
:version 1.10
:name VICON
:units
  mass 1.0
  length 0.45
  angle deg
:documentation
   .ast/.asf automatically generated from VICON data using
   VICON BodyBuilder and BodyLanguage model FoxedUp or BRILLIANT.MOD
:root
   order TX TY TZ RX RY RZ
   axis XYZ
   position 0 0 0  
   orientation 0 0 0 
:bonedata
  begin
     id 1 
     name lhipjoint
     direction 0.54267 -0.795011 0.271047 
     length 2.39899 
     axis 0 0 0  XYZ
  end
  begin
     id 2 
     name lfemur
     direction 0.34202 -0.939693 0  
     length 7.49701  
     axis 0 0 20  XYZ
    dof rx ry rz
    limits (-160.0 20.0)
           (-70.0 70.0)
           (-60.0 70.0)
  end
  begin
     id 3 
     name ltibia
     direction 0.34202 -0.939693 0   
     length 8.1668   
     axis 0 0 20   XYZ
    dof rx
    limits (-10.0 170.0)
  end
  begin
     id 4 
     name lfoot
     direction 0.0736283 -0.202292 0.976554   
     length 2.13544   
     axis -90 7.62852e-016 20   XYZ
    dof rx rz
    limits (-45.0 90.0)
           (-70.0 20.0)
  end
  begin
     id 5 
     name ltoes
     direction 1.53557e-011 -4.22024e-011 1   
     length 1.07411   
     axis -90 7.62852e-016 20   XYZ
    dof rx
    limits (-90.0 20.0)
  end
  begin
     id 6 
     name rhipjoint
     direction -0.538061 -0.797813 0.272002   
     length 2.39057  
     axis 0 0 0  XYZ 
  end
  begin
     id 7 
     name rfemur
     direction -0.34202 -0.939693 0   
     length 7.50152   
     axis 0 0 -20   XYZ
    dof rx ry rz
    limits (-160.0 20.0)
           (-70.0 70.0)
           (-70.0 60.0)
  end
  begin
     id 8 
     name rtibia
     direction -0.34202 -0.939693 0   
     length 8.05793   
     axis 0 0 -20   XYZ
    dof rx
    limits (-10.0 170.0)
 end
 begin
     id 9 
     name rfoot
     direction -0.0765195 -0.210236 0.974652   
     length 2.28698  
     axis -90 -7.62852e-016 -20   XYZ
    dof rx rz
    limits (-45.0 90.0)
           (-20.0 70.0)
  end
  begin
     id 10 
     name rtoes
     direction -1.53542e-011 -4.21847e-011 1   
     length 1.14762   
     axis -90 -7.62852e-016 -20   XYZ
    dof rx
    limits (-90.0 20.0)
  end
  begin
     id 11 
     name lowerback
     direction -0.0217239 0.996592 -0.0795765   
     length 2.08176   
     axis 0 0 0   XYZ
    dof rx ry rz
    limits (-20.0 45.0)
           (-30.0 30.0)
           (-30.0 30.0)
  end
  begin
     id 12 
     name upperback
     direction -0.00563773 0.999651 -0.0258155   
     length 2.08898   
     axis 0 0 0   XYZ
    dof rx ry rz
    limits (-20.0 45.0)
           (-30.0 30.0)
           (-30.0 30.0)
  end
  begin
     id 13 
     name thorax
     direction 0.0032706 0.999923 0.0119599   
     length 2.0968   
     axis 0 0 0   XYZ
    dof rx ry rz
    limits (-20.0 45.0)
           (-30.0 30.0)
           (-30.0 30.0)
  end
  begin
     id 14 
     name lowerneck
     direction -0.0285886 0.99568 0.0883427   
     length 1.81272   
     axis 0 0 0   XYZ
    dof rx ry rz
    limits (-20.0 45.0)
           (-30.0 30.0)
           (-30.0 30.0)
  end
  begin
     id 15 
     name upperneck
     direction 0.0807535 0.97985 -0.18268   
     length 1.82518   
     axis 0 0 0   XYZ
    dof rx ry rz
    limits (-20.0 45.0)
           (-30.0 30.0)
           (-30.0 30.0)
  end
  begin
     id 16
     name head
     direction 0.0236605 0.997053 -0.0729767  
     length 1.84443  
     axis 0 0 0   XYZ
    dof rx ry rz
    limits (-20.0 45.0)
           (-30.0 30.0)
           (-30.0 30.0)
  end
  begin
     id 17 
     name lclavicle
     direction 0.918986 0.39378 -0.0200683  
     length 3.27822  
     axis 0 0 0   XYZ
    dof ry rz
    limits (-20.0 10.0)
           (0.0 20.0)
  end
  begin
     id 18 
     name lhumerus
     direction 1 -4.4897e-011 2.09544e-027   
     length 5.5568   
     axis 180 -30 -90   XYZ
    dof rx ry rz
    limits (-60.0 90.0)
           (-90.0 90.0)
           (-90.0 90.0)
  end
  begin
     id 19
     name lradius
     direction 1 -4.48957e-011 -1.27696e-026   
     length 3.63979   
     axis 180 -30 -90   XYZ
    dof rx
    limits (-10.0 170.0)
  end
  begin
     id 20
     name lwrist
     direction 1 -4.49001e-011 -1.49001e-026   
     length 1.8199   
     axis 9.0955e-015 90 90   XYZ
    dof ry
    limits (-180.0 0.0)
 end
  begin
     id 21 
     name lhand
     direction 1 -4.48709e-011 -2.9758e-026   
     length 0.569419   
     axis 1.90115e-014 90 90   XYZ
    dof rx rz
    limits (-90.0 90.0)
           (-45.0 45.0)
  end
  begin
     id 22 
     name lfingers
     direction 1 -4.49175e-011 -5.96505e-026   
     length 0.45908   
     axis 3.80223e-014 90 90   XYZ
    dof rx
    limits (0.0 90.0)
  end
  begin
     id 23
     name lthumb
     direction 0.707107 -6.34864e-011 0.707107   
     length 0.65915   
     axis -90 45 -3.84942e-014   XYZ
    dof rx rz
    limits (-45.0 45.0)
           (-45.0 45.0)
  end
  begin
     id 24 
     name rclavicle
     direction -0.911913 0.396426 -0.106115   
     length 3.46301  
     axis 0 0 0   XYZ 
    dof ry rz
    limits (-10.0 20.0)
           (-20.0 0.0)
  end
  begin
     id 25 
     name rhumerus
     direction -1 -4.48965e-011 7.78516e-028  
     length 5.34339   
     axis 180 30 90   XYZ
    dof rx ry rz
    limits (-90.0 60.0)
           (-90.0 90.0)
           (-90.0 90.0)
  end
  begin
     id 26 
     name rradius
     direction -1 -4.48948e-011 -5.79823e-027   
     length 3.65101   
     axis 180 30 90   XYZ
    dof rx
    limits (-10.0 170.0)
  end
  begin
     id 27 
     name rwrist
     direction -1 -4.48995e-011 -1.48996e-026   
     length 1.8255   
     axis 9.0955e-015 -90 -90   XYZ
    dof ry
    limits (-180.0 0.0)
  end
  begin
     id 28
     name rhand
     direction -1 -4.48957e-011 -2.97937e-026   
     length 0.694249   
     axis 1.90115e-014 -90 -90   XYZ
    dof rx rz
    limits (-90.0 90.0)
           (-45.0 45.0)
  end
  begin
     id 29
     name rfingers
     direction -1 -4.4898e-011 -5.95943e-026   
     length 0.559721   
     axis 3.80223e-014 -90 -90   XYZ
    dof rx
    limits (0.0 90.0)
  end
  begin
     id 30
     name rthumb
     direction -0.707107 -6.34969e-011 0.707107   
     length 0.803651   
     axis -90 -45 3.84942e-014   XYZ
    dof rx rz
    limits (-45.0 45.0)
           (-45.0 45.0)
  end
:hierarchy
  begin
    root lhipjoint rhipjoint lowerback
    lhipjoint lfemur
    lfemur ltibia
    ltibia lfoot
    lfoot ltoes
    rhipjoint rfemur
    rfemur rtibia
    rtibia rfoot
    rfoot rtoes
    lowerback upperback
    upperback thorax
    thorax lowerneck lclavicle rclavicle
    lowerneck upperneck
    upperneck head
    lclavicle lhumerus
    lhumerus lradius
    lradius lwrist
    lwrist lhand lthumb
    lhand lfingers
    rclavicle rhumerus
    rhumerus rradius
    rradius rwrist
    rwrist rhand rthumb
    rhand rfingers
  end

#!OML:ASF H:\Terrain\Walking\May29\JustinRory\rory.ASF
:FULLY-SPECIFIED
:DEGREES
1
root 12.9317 17.5412 -21.7435 5.50061 -31.0536 0.226342
lowerback 8.95978 1.4781 2.45821
upperback 3.36206 2.16908 1.85577
thorax -1.51618 1.06754 0.317106
lowerneck -10.6064 5.74125 4.46674
upperneck 16.4834 9.19648 -11.8379
head 7.58981 3.65174 -3.69448
rclavicle -6.89783e-014 7.15625e-015
rhumerus -31.4025 -5.99082 -75.0513
rradius 39.1944
rwrist -0.0827057
rhand -9.69601 34.8534
rfingers 7.12502
rthumb 16.2764 5.51656
lclavicle -6.89783e-014 7.15625e-015
lhumerus -30.7514 -4.62931 86.2144
lradius 28.2318
lwrist -0.177006
lhand -21.6656 21.3221
lfingers 7.12502
lthumb 4.73165 51.2492
rfemur -2.03808 2.16136 21.8577
rtibia 45.3351
rfoot 3.01255 3.99801
rtoes -2.55504
lfemur -35.9523 -0.354428 -17.5171
ltibia 36.9704
lfoot -7.13733 0.625979
ltoes 4.91775
2
root 12.8564 17.5 -21.5383 4.52885 -31.0296 0.848215
lowerback 9.16795 1.16352 1.78792
upperback 3.26612 1.70509 1.78642
thorax -1.75381 0.832696 0.661384
lowerneck -9.22875 5.96202 4.46466
upperneck 15.9 9.50597 -12.1551
head 7.19654 3.84357 -3.7948
rclavicle -1.51076e-014 -1.19271e-014
rhumerus -31.582 -5.45273 -74.9033
rradius 39.3349
rwrist 0.138098
rhand -9.63972 35.3986
rfingers 7.12502
rthumb 16.3306 6.06616
lclavicle -1.51076e-014 -1.19271e-014
lhumerus -31.5833 -2.23411 85.3771
lradius 28.0716
lwrist -0.635124
lhand -21.4713 21.1674
lfingers 7.12502
lthumb 4.91929 51.0903
rfemur -2.64069 2.1393 20.9886
rtibia 48.0409
rfoot 5.76844 4.76966
rtoes -1.19681
lfemur -35.5075 -0.520797 -18.2761
ltibia 38.6254
lfoot -8.12582 2.19733
ltoes -2.13598
3
root 12.7813 17.4582 -21.3314 3.37401 -31.0995 1.60679
lowerback 9.67816 1.03707 0.874299
upperback 3.91753 1.4437 1.71052
thorax -1.38149 0.696244 1.12153
lowerneck -11.0057 6.29047 4.30497
upperneck 16.0283 10.0298 -12.3522
head 7.61256 3.99523 -3.72902
rclavicle -1.03766e-013 1.11319e-014
rhumerus -30.2025 -5.75903 -74.7355
rradius 39.1055
rwrist 0.197917
rhand -9.64647 35.8467
rfingers 7.12502
rthumb 16.3241 6.5138
lclavicle -1.03766e-013 1.11319e-014
lhumerus -30.5828 -2.35765 85.4176
lradius 27.4127
lwrist 0.708503
lhand -22.3577 20.2791
lfingers 7.12502
lthumb 4.06333 50.2201
rfemur -3.36414 2.22549 19.9767
rtibia 50.9435
rfoot 8.11575 5.88715
rtoes -0.415616
lfemur -34.6418 -0.521876 -19.1882
ltibia 39.8191
lfoot -8.9023 2.81582
ltoes -6.24954
4
root 12.7058 17.4174 -21.1297 2.26375 -31.2496 2.35925
lowerback 10.2815 1.1259 0.0639185
upperback 3.91759 1.49037 1.56969
thorax -1.72969 0.71449 1.4158
lowerneck -10.2422 6.23595 4.21383
upperneck 15.4652 9.92958 -12.4646
head 7.28454 3.98487 -3.77898
rclavicle -8.74653e-014 5.56597e-015
rhumerus -30.4807 -6.2743 -74.3691
rradius 39.1399
rwrist 0.247994
rhand -10.0812 35.8599
rfingers 7.12502
rthumb 15.9054 6.49311
lclavicle -8.74653e-014 5.56597e-015
lhumerus -29.9762 -8.95185 87.5331
lradius 23.841
lwrist 7.63935
lhand -24.7671 18.0357
lfingers 7.12502
lthumb 1.73648 48.0083
rfemur -4.17248 2.36012 18.9867
rtibia 53.6774
rfoot 10.3109 6.79791
rtoes 1.43301
lfemur -33.7505 -0.396927 -20.0923
ltibia 40.9179
lfoot -9.31199 1.92183
ltoes -6.43564
5
root 12.6253 17.379 -20.9306 1.20981 -31.4143 3.36338
lowerback 10.6404 1.21318 -0.91152
upperback 3.97738 1.50297 1.31867
thorax -1.88203 0.716503 1.69774
lowerneck -9.9508 6.16346 3.85534
upperneck 15.2326 9.83717 -12.3297
head 7.12426 3.95112 -3.69237
rclavicle -6.87795e-014 1.59028e-015
rhumerus -30.6612 -7.03086 -74.1381
rradius 39.2364
rwrist 0.457564
rhand -11.0764 35.9395
rfingers 7.12502
rthumb 14.9469 6.4988
lclavicle -6.87795e-014 1.59028e-015
lhumerus -31.6643 3.36912 83.3048
lradius 27.9688
lwrist -4.04077
lhand -22.2879 18.2864
lfingers 7.12502
lthumb 4.13074 48.2261
rfemur -5.09301 2.39862 17.7863
rtibia 56.3263
rfoot 11.7241 7.53237
rtoes 2.28694
lfemur -32.867 -0.10821 -21.2754
ltibia 41.7607
lfoot -9.91137 1.25105
ltoes -6.95637
6
root 12.5391 17.358 -20.7247 -0.000361768 -31.6156 4.71536
lowerback 10.7655 1.38903 -2.05895
upperback 4.17497 1.60519 0.897056
thorax -1.76647 0.75924 1.89425
lowerneck -10.1988 6.12877 3.89631
upperneck 15.363 9.80532 -12.373
head 7.21239 3.91965 -3.71099
rclavicle 3.06128e-014 -4.77083e-015
rhumerus -30.8414 -8.0242 -73.9599
rradius 39.455
rwrist 0.4264
rhand -12.1238 36.1944
rfingers 7.12502
rthumb 13.9377 6.6815
lclavicle 3.06128e-014 -4.77083e-015
lhumerus -31.3344 2.65674 83.2921
lradius 27.3381
lwrist -2.6849
lhand -22.9946 18.8232
lfingers 7.12502
lthumb 3.44829 48.7751
rfemur -5.99175 2.42389 16.2595
rtibia 58.8426
rfoot 11.7658 8.39084
rtoes 1.40374
lfemur -31.7647 0.203405 -22.7603
ltibia 42.4145
lfoot -11.1147 1.46259
ltoes -9.10682
7
root 12.4555 17.3495 -20.518 -0.91994 -31.9226 5.64443
lowerback 10.746 1.59515 -2.67733
upperback 4.38665 1.80565 0.534057
thorax -1.55144 0.850656 1.84454
lowerneck -10.2592 6.16458 4.12596
upperneck 15.2056 9.83814 -12.587
head 7.19841 3.9358 -3.81284
rclavicle 1.5704e-014 4.77083e-015
rhumerus -30.9044 -8.95658 -73.7285
rradius 39.4642
rwrist 0.394976
rhand -12.8998 36.3517
rfingers 7.12502
rthumb 13.1898 6.78897
lclavicle 1.5704e-014 4.77083e-015
lhumerus -30.7821 1.5146 83.357
lradius 26.5591
lwrist -1.24225
lhand -23.3573 19.3919
lfingers 7.12502
lthumb 3.09808 49.3491
rfemur -7.07128 2.49451 15.1828
rtibia 61.2136
rfoot 10.8101 9.0114
rtoes -0.259602
lfemur -30.6718 0.558615 -23.7868
ltibia 42.9253
lfoot -12.2603 1.65925
ltoes -10.8023
8
root 12.3789 17.3383 -20.3162 -1.33767 -32.3354 5.99794
lowerback 10.4996 1.56674 -2.96921
upperback 4.58121 1.74608 0.50346
thorax -1.21834 0.810544 1.99245
lowerneck -10.2285 6.40268 3.74195
upperneck 14.9723 10.2253 -12.7142
head 7.14288 4.09863 -3.74804
rclavicle -1.8487e-014 1.74931e-014
rhumerus -30.4947 -9.24845 -73.4712
rradius 39.1726
rwrist 0.879347
rhand -13.5516 36.0426
rfingers 7.12502
rthumb 12.5615 6.44021
lclavicle -1.8487e-014 1.74931e-014
lhumerus -30.4716 2.09704 83.0921
lradius 26.1291
lwrist -0.901445
lhand -23.3756 19.4374
lfingers 7.12502
lthumb 3.0804 49.3949
rfemur -8.38669 2.63857 14.7256
rtibia 63.3899
rfoot 9.25529 8.77595
rtoes -1.58917
lfemur -29.8174 0.893602 -24.2315
ltibia 43.3137
lfoot -13.0862 1.5924
ltoes -9.6205
9
root 12.3041 17.3338 -20.1192 -1.5352 -32.6475 6.21221
lowerback 10.2551 1.65101 -3.02184
upperback 4.57189 1.85838 0.355295
thorax -1.09771 0.865895 1.86116
lowerneck -10.1991 6.43078 3.79048
upperneck 15.2628 10.3007 -12.7739
head 7.244 4.12013 -3.76973
rclavicle -1.1291e-013 3.18055e-014
rhumerus -30.7855 -9.86333 -73.2951
rradius 39.2536
rwrist 1.02651
rhand -14.6348 35.2506
rfingers 7.12502
rthumb 11.5169 5.58698
lclavicle -1.1291e-013 3.18055e-014
lhumerus -30.4971 1.98529 82.8183
lradius 26.1601
lwrist -0.396004
lhand -23.6915 19.8458
lfingers 7.12502
lthumb 2.77527 49.8075
rfemur -9.71851 2.79928 14.4378
rtibia 65.3568
rfoot 6.99617 7.89254
rtoes -3.18648
lfemur -29.1051 1.25044 -24.5485
ltibia 43.5975
lfoot -13.5882 1.38185
ltoes -8.69581
10
root 12.2264 17.3386 -19.9261 -1.69616 -32.8241 6.43293
lowerback 10.262 1.63281 -2.95884
upperback 4.41812 1.83519 0.135401
thorax -1.25127 0.861425 1.59833
lowerneck -10.2915 6.43586 3.6848
upperneck 15.7218 10.3634 -12.6879
head 7.40462 4.1255 -3.71752
rclavicle -8.24956e-014 2.14687e-014
rhumerus -31.2769 -10.0085 -73.4533
rradius 39.4634
rwrist 1.16717
rhand -17.0029 33.4215
rfingers 7.12502
rthumb 9.23255 3.64362
lclavicle -8.24956e-014 2.14687e-014
lhumerus -30.8199 2.63429 82.2632
lradius 26.3271
lwrist -0.320729
lhand -23.8774 20.4818
lfingers 7.12502
lthumb 2.59574 50.4457
rfemur -11.076 2.78873 14.1552
rtibia 67.0824
rfoot 4.66484 6.87726
rtoes -4.69731
lfemur -28.397 1.75052 -24.897
ltibia 43.7779
lfoot -14.111 1.11912
ltoes -9.6446
11
root 12.1446 17.3547 -19.7291 -1.83006 -33.0599 6.58176
lowerback 10.1963 1.64548 -2.91338
upperback 4.27483 1.85487 -0.023088
thorax -1.35877 0.87659 1.40602
lowerneck -10.3149 6.45813 3.72147
upperneck 16.2419 10.4533 -12.7095
head 7.5894 4.14306 -3.72355
rclavicle -1.66979e-014 2.06736e-014
rhumerus -31.7121 -9.94255 -73.7883
rradius 39.6049
rwrist 2.11782
rhand -20.5511 29.6341
rfingers 7.12502
rthumb 5.80773 -0.26629
lclavicle -1.66979e-014 2.06736e-014
lhumerus -31.2193 4.32579 81.392
lradius 26.409
lwrist -1.30307
lhand -23.489 21.1652
lfingers 7.12502
lthumb 2.97088 51.1242
rfemur -12.6024 2.62915 13.9773
rtibia 68.5038
rfoot 2.98699 5.85111
rtoes -6.53767
lfemur -27.57 2.23794 -25.1755
ltibia 43.8201
lfoot -14.9688 0.841295
ltoes -8.46813
12
root 12.066 17.3778 -19.5332 -1.84568 -33.1656 6.57621
lowerback 9.94894 1.60714 -2.72551
upperback 4.22803 1.82928 -0.0939407
thorax -1.2634 0.866121 1.23575
lowerneck -10.3216 6.55259 3.88944
upperneck 16.6689 10.6397 -12.8813
head 7.7668 4.20676 -3.78998
rclavicle -1.76918e-014 -5.56597e-015
rhumerus -31.982 -9.89663 -74.0157
rradius 39.7442
rwrist 2.87105
rhand -23.0109 25.8796
rfingers 7.12502
rthumb 3.43256 -4.07255
lclavicle -1.76918e-014 -5.56597e-015
lhumerus -31.3524 5.23606 81.0258
lradius 26.389
lwrist -1.30758
lhand -23.8676 22.3402
lfingers 7.12502
lthumb 2.60525 52.304
rfemur -14.1431 2.35513 13.951
rtibia 69.7047
rfoot 1.66062 4.51465
rtoes -8.09119
lfemur -26.7013 2.41919 -25.3121
ltibia 43.7193
lfoot -15.6546 0.723529
ltoes -8.06069
13
root 11.9892 17.399 -19.3455 -1.81263 -32.9453 6.41339
lowerback 9.81885 1.45992 -2.40405
upperback 4.21512 1.66816 -0.107985
thorax -1.19023 0.788835 1.06157
lowerneck -10.0702 6.61251 3.83253
upperneck 16.6449 10.7345 -12.9145
head 7.72115 4.25597 -3.78775
rclavicle -2.96189e-014 3.97569e-015
rhumerus -32.3063 -10.5621 -73.6755
rradius 39.5983
rwrist 2.67943
rhand -22.2646 26.691
rfingers 7.12502
rthumb 4.15327 -3.24827
lclavicle -2.96189e-014 3.97569e-015
lhumerus -31.1939 5.53659 81.0277
lradius 26.2611
lwrist -0.411501
lhand -24.787 22.9534
lfingers 7.12502
lthumb 1.71727 52.9263
rfemur -15.4186 1.95294 14.0307
rtibia 70.6876
rfoot 0.844646 2.56398
rtoes -4.39051
lfemur -25.7665 2.25839 -25.3011
ltibia 43.4892
lfoot -16.1098 0.912764
ltoes -12.0989
